<svg width="100" height="100" viewBox="0 0 100 100" fill="none" xmlns="http://www.w3.org/2000/svg">
<g clip-path="url(#clip0_1_2)">
<path d="M8.57861 72L9.32861 62.925H17.9536V35.625L9.17861 32.1V28.425L22.6786 21.675H28.4536V62.925H36.7786L36.0286 72H8.57861ZM90.1394 79.725L74.3894 71.925C71.9394 72.675 69.2394 73.05 66.2894 73.05C61.3394 73.05 56.9894 71.975 53.2394 69.825C49.5394 67.675 46.6394 64.675 44.5394 60.825C42.4894 56.925 41.4644 52.425 41.4644 47.325C41.4644 42.125 42.4894 37.6 44.5394 33.75C46.6394 29.9 49.5394 26.9 53.2394 24.75C56.9894 22.6 61.3394 21.525 66.2894 21.525C71.2394 21.525 75.5644 22.6 79.2644 24.75C83.0144 26.85 85.9144 29.8 87.9644 33.6C90.0144 37.4 91.0394 41.875 91.0394 47.025C91.0394 50.875 90.4394 54.4 89.2394 57.6C88.0894 60.8 86.4394 63.55 84.2894 65.85L91.2644 69.45L90.1394 79.725ZM66.1394 63.525L66.8144 56.7L74.5394 60.75C76.2394 59.35 77.5394 57.5 78.4394 55.2C79.3894 52.9 79.8644 50.275 79.8644 47.325C79.8644 44.025 79.2894 41.15 78.1394 38.7C77.0394 36.25 75.4644 34.35 73.4144 33C71.3644 31.65 68.9894 31 66.2894 31.05C63.5894 31 61.2144 31.675 59.1644 33.075C57.1644 34.425 55.5894 36.325 54.4394 38.775C53.2894 41.225 52.7144 44.075 52.7144 47.325C52.7144 50.525 53.2644 53.35 54.3644 55.8C55.4644 58.2 57.0144 60.075 59.0144 61.425C61.0644 62.775 63.4394 63.475 66.1394 63.525Z" fill="#1B8F4A"/>
</g>
<defs>
<clipPath id="clip0_1_2">
<rect width="100" height="100" fill="white"/>
</clipPath>
</defs>
</svg>
